<?xml version="1.0" encoding="utf-8"?>
<!-- Generator: Adobe Illustrator 20.0.0, SVG Export Plug-In . SVG Version: 6.00 Build 0)  -->
<svg version="1.1" id="레이어_1" xmlns="http://www.w3.org/2000/svg" xmlns:xlink="http://www.w3.org/1999/xlink" x="0px"
	 y="0px" viewBox="0 0 42.5 42.5" style="enable-background:new 0 0 42.5 42.5;" xml:space="preserve">
<style type="text/css">
	.st0{fill:#040000;}
</style>
<path class="st0" d="M21.3,0.8C9.9,0.8,0.7,10,0.7,21.4S9.9,42,21.3,42s20.6-9.2,20.6-20.6S32.6,0.8,21.3,0.8z M34.6,32.2
	c-0.4-1-1.4-1.7-3.2-2.1c-3.9-0.9-7.6-1.7-5.8-5.1C30.9,14.9,27,9.4,21.3,9.4c-5.8,0-9.7,5.7-4.3,15.6c1.8,3.4-2,4.2-5.8,5.1
	c-1.9,0.4-2.8,1.1-3.2,2.1c-2.4-3-3.9-6.7-3.9-10.8c0-9.5,7.7-17.2,17.2-17.2S38.4,12,38.4,21.4C38.4,25.5,37,29.3,34.6,32.2z"/>
</svg>
